<svg width="1440" height="1024" viewBox="0 0 1440 1024" fill="none" xmlns="http://www.w3.org/2000/svg">
<g clip-path="url(#clip0_201_672)">
<rect width="1440" height="1024" fill="white"/>
<path d="M852.964 945.5C853.584 945.5 854.167 945.787 854.544 946.273L854.616 946.373L858.707 952.373H858.706C859.611 953.701 858.66 955.5 857.054 955.5H576.776C575.322 955.5 574.354 953.997 574.955 952.673L577.679 946.673L577.744 946.542C578.093 945.903 578.765 945.5 579.5 945.5H852.964Z" fill="white" stroke="black" stroke-width="3"/>
<path d="M1440 1024H0V0H1440V1024ZM873 32L849 56H586.5L562.5 32H32V81.5L56 105.501V869.001L155 968H433L457 992H475.5L515.5 952H898L938 992H1380.5L1408 964.5V81.5H1210.5L1192 31.999L873 32Z" fill="black"/>
</g>
<defs>
<clipPath id="clip0_201_672">
<rect width="1440" height="1024" fill="white"/>
</clipPath>
</defs>
</svg>
