<svg width="2214" height="1024" viewBox="0 0 2214 1024" fill="none" xmlns="http://www.w3.org/2000/svg">
<g clip-path="url(#clip0_201_508)">
<rect width="2214" height="1024" fill="white"/>
<path d="M1239.96 945.5C1240.58 945.5 1241.17 945.787 1241.54 946.273L1241.62 946.373L1245.71 952.373H1245.71C1246.61 953.701 1245.66 955.5 1244.05 955.5H963.776C962.322 955.5 961.354 953.997 961.955 952.673L964.679 946.673L964.744 946.542C965.093 945.903 965.765 945.5 966.5 945.5H1239.96Z" fill="white" stroke="black" stroke-width="3"/>
<path d="M2214 1024H0V0H2214V1024ZM38 32V81.5L62 105.501V869.001L161 968H439L463 992H862.5L902.5 952H1285L1325 992H2154.5L2182 964.5V81.5H1984.5L1966 32H1260L1236 56H973.5L949.5 32H38Z" fill="black"/>
</g>
<defs>
<clipPath id="clip0_201_508">
<rect width="2214" height="1024" fill="white"/>
</clipPath>
</defs>
</svg>
