<svg width="107" height="40" viewBox="0 0 107 40" fill="none" xmlns="http://www.w3.org/2000/svg">
<path d="M17.4411 0.755953C17.6512 0.756483 17.8386 0.888289 17.91 1.08585L31.4249 38.4412C31.5427 38.7669 31.3017 39.1108 30.9554 39.1113L15.0124 39.1323C14.8017 39.1326 14.6133 39.0007 14.5416 38.8025L1.0048 1.38577C0.886694 1.05931 1.12907 0.714794 1.47624 0.71567L17.4411 0.755953ZM40.0212 0.81355C40.2313 0.814092 40.4186 0.945893 40.4901 1.14344L53.9737 38.4109C54.0916 38.7366 53.8506 39.0806 53.5042 39.0811L37.5593 39.103C37.3485 39.1033 37.1602 38.9714 37.0885 38.7731L23.5829 1.44245C23.4648 1.11598 23.7072 0.771456 24.0544 0.772352L40.0212 0.81355ZM63.1765 0.873121C63.3866 0.873663 63.5739 1.00546 63.6454 1.203L77.0967 38.3806C77.2146 38.7063 76.9736 39.0503 76.6272 39.0507L60.6833 39.0718C60.4725 39.0721 60.2842 38.9401 60.2125 38.7419L46.7392 1.50203C46.6211 1.17556 46.8635 0.831026 47.2107 0.831922L63.1765 0.873121ZM86.3327 0.931734C86.5428 0.932265 86.7302 1.06406 86.8017 1.26162L100.221 38.3494C100.339 38.6751 100.098 39.019 99.7513 39.0195L83.8064 39.0406C83.5956 39.0408 83.4073 38.9089 83.3356 38.7107L69.8945 1.56156C69.7764 1.2351 70.0187 0.890575 70.3659 0.891451L86.3327 0.931734ZM109.489 0.991285C109.699 0.991827 109.886 1.12362 109.958 1.32115L113.471 11.0299C113.491 11.0844 113.501 11.142 113.501 11.2V38.5026C113.501 38.7785 113.278 39.0022 113.002 39.0026L106.93 39.0103C106.72 39.0106 106.531 38.8786 106.46 38.6804L93.0507 1.6202C92.9326 1.29372 93.175 0.94919 93.5222 0.950086L109.489 0.991285Z" fill="url(#paint0_linear_151_219)"/>
<defs>
<linearGradient id="paint0_linear_151_219" x1="113.501" y1="19.924" x2="1.1875" y2="19.924" gradientUnits="userSpaceOnUse">
<stop/>
<stop offset="1" stop-color="white"/>
</linearGradient>
</defs>
</svg>
