<svg width="1440" height="1024" viewBox="0 0 1440 1024" fill="none" xmlns="http://www.w3.org/2000/svg">
<g filter="url(#filter0_dddddd_151_204)">
<path d="M855.964 945.5C856.584 945.5 857.167 945.787 857.544 946.273L857.616 946.373L861.707 952.373C862.612 953.701 861.66 955.5 860.054 955.5H579.776C578.322 955.5 577.354 953.997 577.955 952.673L580.679 946.673L580.744 946.542C581.093 945.903 581.765 945.5 582.5 945.5H855.964Z" fill="white" stroke="black" stroke-width="3"/>
<path d="M1537 1073C1537 1074.66 1535.66 1076 1534 1076H-30C-31.6569 1076 -33 1074.66 -33 1073V-29C-33 -30.6568 -31.6569 -32 -30 -32H1534C1535.66 -32 1537 -30.6569 1537 -29V1073ZM35 32C33.3431 32 32 33.3431 32 35V80.2574C32 81.053 32.3161 81.8161 32.8787 82.3787L55.1223 104.622C55.6849 105.185 56.001 105.948 56.001 106.744V867.758C56.001 868.554 56.317 869.317 56.8797 869.88L154.121 967.121C154.684 967.684 155.447 968 156.243 968H431.757C432.553 968 433.316 968.316 433.879 968.879L456.121 991.121C456.684 991.684 457.447 992 458.243 992H486.758C487.554 992 488.317 991.684 488.88 991.121L527.122 952.879C527.685 952.316 528.448 952 529.244 952H909.258C910.054 952 910.817 952.316 911.38 952.879L949.621 991.121C950.184 991.684 950.947 992 951.743 992H1379.26C1380.05 992 1380.82 991.684 1381.38 991.121L1407.12 965.379C1407.68 964.816 1408 964.053 1408 963.257L1408 84.5C1408 82.8432 1406.66 81.5 1405 81.5H1212.58C1211.33 81.5 1210.21 80.7228 1209.77 79.5503L1192.73 33.9497C1192.29 32.7772 1191.17 32 1189.92 32H881.243C880.447 32 879.684 32.3161 879.121 32.8787L856.879 55.1213C856.316 55.6839 855.553 56 854.757 56H594.743C593.947 56 593.184 55.6839 592.621 55.1213L570.379 32.8787C569.816 32.3161 569.053 32 568.257 32H35Z" fill="black"/>
<path d="M1404 1003.25H1434.5" stroke="white" stroke-width="0.5"/>
<path d="M1419.25 988V1018.5" stroke="white" stroke-width="0.5"/>
<path d="M662.01 1010.75L661.433 1009.75C661.241 1009.42 661.481 1009 661.866 1009H1139.29C1139.43 1009 1139.55 1008.95 1139.65 1008.85L1156.35 992.146C1156.45 992.053 1156.57 992 1156.71 992H1157.29C1157.74 992 1157.96 992.539 1157.65 992.854L1139.65 1010.85C1139.55 1010.95 1139.43 1011 1139.29 1011H662.443C662.265 1011 662.1 1010.9 662.01 1010.75Z" fill="#F35C05" stroke="#F35C05" stroke-width="0.5"/>
<path d="M330 1037.88L358.854 1009.03C358.947 1008.93 359.074 1008.88 359.207 1008.88H1139.79C1139.93 1008.88 1140.05 1008.83 1140.15 1008.73L1156.88 992" stroke="white" stroke-width="0.5"/>
<path d="M560.76 992V972H563.96V980.6H581.48V972H584.68V992H581.48V983.52H563.96V992H560.76ZM590.19 992L587.87 989.68V972H609.59V974.92H591.07V980.36H608.47V983.28H591.07V989.08H609.59V992H590.19ZM612.791 992V972H616.031L631.551 987.84V972H634.751V992H631.151L615.991 976.16V992H612.791ZM637.948 992V972H658.828L661.148 974.32V981.4L658.828 983.72H652.028L659.348 989.8V992H656.988L647.428 983.72H641.148V992H637.948ZM641.148 980.8H657.948V974.92H641.148V980.8ZM663.759 992V989.08H673.039V974.92H663.759V972H685.519V974.92H676.239V989.08H685.519V992H663.759ZM700.291 992V974.32L702.611 972H722.051V974.92H703.491V981.44H718.891V984.36H703.491V992H700.291ZM726.791 992L724.471 989.68V974.32L726.791 972H746.071L748.391 974.32V989.68L746.071 992H726.791ZM727.671 989.08H745.191V974.92H727.671V989.08ZM753.9 992L751.58 989.68V972H754.78V989.08H771.38V972H774.58V989.68L772.26 992H753.9ZM780.111 992L777.791 989.68V974.32L780.111 972H800.791V978.88H797.711V974.92H780.991V989.08H800.791V992H780.111ZM804.002 992V972H807.202V980.6H824.722V972H827.922V992H824.722V983.52H807.202V992H804.002ZM833.432 992L831.112 989.68V972H852.832V974.92H834.312V980.36H851.712V983.28H834.312V989.08H852.832V992H833.432ZM856.034 992V972H876.914L879.234 974.32V981.4L876.914 983.72H870.114L877.434 989.8V992H875.074L865.514 983.72H859.234V992H856.034ZM859.234 980.8H876.034V974.92H859.234V980.8Z" fill="white"/>
<rect x="177" y="974" width="244" height="18" rx="0.5" fill="white"/>
<path d="M186.9 988L181.4 978.96V978H182.8L187.64 986.32L192.46 978H193.86V978.96L188.38 988H186.9ZM194.862 988V986.54H199.502V979.46H194.862V978H205.742V979.46H201.102V986.54H205.742V988H194.862ZM207.034 988V986.54H218.194V984.34L208.194 982.74L207.034 981.58V979.16L208.194 978H218.654V979.46H208.634V981.28L218.674 982.9L219.794 984.02V986.84L218.634 988H207.034ZM222.55 988L221.39 986.84V978H222.99V986.54H231.29V978H232.89V986.84L231.73 988H222.55ZM241.46 978L247.54 987.04V988H246.18L244.64 985.6H236.8L235.26 988H233.9V987.04L239.98 978H241.46ZM237.76 984.14H243.68L240.72 979.54L237.76 984.14ZM248.538 988V978H250.138V986.54H258.018V988H248.538ZM259.222 988V986.7H266.162V988H259.222ZM267.757 988V978H275.217L279.717 982.5V986.84L278.557 988H267.757ZM269.357 986.52H278.117V983.04L274.577 979.46H269.357V986.52ZM282.472 988L281.312 986.84V978H292.172V979.46H282.912V982.18H291.612V983.64H282.912V986.54H292.172V988H282.472ZM293.773 988V986.54H304.933V984.34L294.933 982.74L293.773 981.58V979.16L294.933 978H305.393V979.46H295.373V981.28L305.413 982.9L306.533 984.02V986.84L305.373 988H293.773ZM307.83 988V986.54H312.47V979.46H307.83V978H318.71V979.46H314.07V986.54H318.71V988H307.83ZM325.103 982.18H331.703V986.84L330.543 988H321.163L320.003 986.84V979.16L321.163 978H330.803V979.46H321.603V986.54H330.163V983.64H325.103V982.18ZM333.304 988V978H334.924L342.684 985.92V978H344.284V988H342.484L334.904 980.08V988H333.304ZM345.882 988V986.7H352.822V988H345.882ZM354.417 988V986.7H361.357V988H354.417ZM362.952 988V986.7H369.892V988H362.952ZM371.488 988V986.7H378.428V988H371.488ZM380.023 988V986.7H386.963V988H380.023ZM388.558 988V986.7H395.498V988H388.558ZM397.093 988V986.54H406.333V983.66H397.633V982.2H406.333V979.46H397.093V978H406.773L407.933 979.16V982.08L407.073 982.94L407.933 983.8V986.84L406.773 988H397.093Z" fill="black"/>
<path d="M429 989.5V977.207C429 976.762 429.539 976.539 429.854 976.854L442.146 989.146C442.461 989.461 442.238 990 441.793 990H429.5C429.224 990 429 989.776 429 989.5Z" fill="white"/>
<path d="M155.051 991.586C156.311 992.846 155.418 995 153.636 995H34C32.8954 995 32 994.105 32 993V987C32 985.895 32.8954 985 34 985H147.636C148.167 985 148.676 985.211 149.051 985.586L155.051 991.586ZM138.051 974.586C139.311 975.846 138.418 978 136.636 978H34C32.8954 978 32 977.105 32 976V970C32 968.895 32.8954 968 34 968H130.636C131.167 968 131.676 968.211 132.051 968.586L138.051 974.586ZM121.051 957.586C122.311 958.846 121.418 961 119.636 961H34C32.8954 961 32 960.105 32 959V953C32 951.895 32.8954 951 34 951H113.636C114.167 951 114.676 951.211 115.051 951.586L121.051 957.586ZM104.051 940.586C105.311 941.846 104.418 944 102.636 944H34C32.8954 944 32 943.105 32 942V936C32 934.895 32.8954 934 34 934H96.6364C97.1668 934 97.6756 934.211 98.0506 934.586L104.051 940.586ZM87.0506 923.586C88.3106 924.846 87.4182 927 85.6364 927H34C32.8954 927 32 926.105 32 925V919C32 917.895 32.8954 917 34 917H79.6364C80.1669 917 80.6756 917.211 81.0506 917.586L87.0506 923.586ZM70.0506 906.586C71.3106 907.846 70.4182 910 68.6364 910H34C32.8954 910 32 909.105 32 908V902C32 900.895 32.8954 900 34 900H62.6364C63.1669 900 63.6756 900.211 64.0506 900.586L70.0506 906.586ZM53.0506 889.586C54.3106 890.846 53.4182 893 51.6364 893H34C32.8954 893 32 892.105 32 891V885C32 883.895 32.8954 883 34 883H45.6364C46.1668 883 46.6756 883.211 47.0506 883.586L53.0506 889.586Z" fill="url(#paint0_linear_151_204)"/>
<path d="M1440.75 133.75L1440.75 134.919L1431 132.17L1431 131L1440.75 133.75ZM1440.75 136.304L1440.75 137.474L1431 134.724L1431 133.554L1440.75 136.304ZM1440.75 138.859L1440.75 140.028L1431 137.279L1431 136.109L1440.75 138.859Z" fill="#F35C05"/>
<path d="M1440.75 141.427L1440.75 142.597L1431 139.848L1431 138.678L1440.75 141.427ZM1440.75 143.982L1440.75 145.152L1431 142.402L1431 141.232L1440.75 143.982ZM1440.75 146.536L1440.75 147.706L1431 144.957L1431 143.787L1440.75 146.536Z" fill="#F35C05"/>
<path d="M1440.75 149.107L1440.75 150.277L1431 147.527L1431 146.357L1440.75 149.107ZM1440.75 151.661L1440.75 152.831L1431 150.082L1431 148.912L1440.75 151.661ZM1440.75 154.216L1440.75 155.386L1431 152.636L1431 151.466L1440.75 154.216Z" fill="#F35C05"/>
<path d="M1440.75 156.785L1440.75 157.955L1431 155.205L1431 154.035L1440.75 156.785ZM1440.75 159.339L1440.75 160.509L1431 157.76L1431 156.59L1440.75 159.339ZM1440.75 161.894L1440.75 163.064L1431 160.314L1431 159.144L1440.75 161.894Z" fill="#F35C05"/>
<path d="M1440.75 164.464L1440.75 165.634L1431 162.885L1431 161.715L1440.75 164.464ZM1440.75 167.019L1440.75 168.189L1431 165.439L1431 164.269L1440.75 167.019ZM1440.75 169.573L1440.75 170.743L1431 167.994L1431 166.824L1440.75 169.573Z" fill="#F35C05"/>
<path d="M1440.75 172.142L1440.75 173.312L1431 170.563L1431 169.393L1440.75 172.142ZM1440.75 174.697L1440.75 175.867L1431 173.117L1431 171.947L1440.75 174.697ZM1440.75 177.251L1440.75 178.421L1431 175.672L1431 174.502L1440.75 177.251Z" fill="#F35C05"/>
<path d="M1440.75 179.82L1440.75 180.99L1431 178.24L1431 177.07L1440.75 179.82ZM1440.75 182.374L1440.75 183.544L1431 180.795L1431 179.625L1440.75 182.374ZM1440.75 184.929L1440.75 186.099L1431 183.349L1431 182.179L1440.75 184.929Z" fill="#F35C05"/>
<path d="M1440.75 187.5L1440.75 188.669L1431 185.92L1431 184.75L1440.75 187.5ZM1440.75 190.054L1440.75 191.224L1431 188.474L1431 187.304L1440.75 190.054ZM1440.75 192.609L1440.75 193.778L1431 191.029L1431 189.859L1440.75 192.609Z" fill="#F35C05"/>
<path d="M1440.75 195.177L1440.75 196.347L1431 193.598L1431 192.428L1440.75 195.177ZM1440.75 197.732L1440.75 198.902L1431 196.152L1431 194.982L1440.75 197.732ZM1440.75 200.286L1440.75 201.456L1431 198.707L1431 197.537L1440.75 200.286Z" fill="#F35C05"/>
<path d="M1440.75 202.857L1440.75 204.027L1431 201.277L1431 200.107L1440.75 202.857ZM1440.75 205.411L1440.75 206.581L1431 203.832L1431 202.662L1440.75 205.411ZM1440.75 207.966L1440.75 209.136L1431 206.386L1431 205.216L1440.75 207.966Z" fill="#F35C05"/>
<path d="M1440.75 210.535L1440.75 211.705L1431 208.955L1431 207.785L1440.75 210.535ZM1440.75 213.089L1440.75 214.259L1431 211.51L1431 210.34L1440.75 213.089ZM1440.75 215.644L1440.75 216.814L1431 214.064L1431 212.894L1440.75 215.644Z" fill="#F35C05"/>
<path d="M1440.75 218.212L1440.75 219.382L1431 216.633L1431 215.463L1440.75 218.212ZM1440.75 220.767L1440.75 221.937L1431 219.187L1431 218.017L1440.75 220.767ZM1440.75 223.321L1440.75 224.491L1431 221.742L1431 220.572L1440.75 223.321Z" fill="#F35C05"/>
<path d="M1440.75 225.892L1440.75 227.062L1431 224.313L1431 223.143L1440.75 225.892ZM1440.75 228.447L1440.75 229.617L1431 226.867L1431 225.697L1440.75 228.447ZM1440.75 231.001L1440.75 232.171L1431 229.422L1431 228.252L1440.75 231.001Z" fill="#F35C05"/>
<path d="M1440.75 233.57L1440.75 234.74L1431 231.99L1431 230.82L1440.75 233.57ZM1440.75 236.124L1440.75 237.294L1431 234.545L1431 233.375L1440.75 236.124ZM1440.75 238.679L1440.75 239.849L1431 237.099L1431 235.929L1440.75 238.679Z" fill="#F35C05"/>
<path d="M1440.75 241.248L1440.75 242.418L1431 239.668L1431 238.498L1440.75 241.248ZM1440.75 243.802L1440.75 244.972L1431 242.223L1431 241.053L1440.75 243.802ZM1440.75 246.357L1440.75 247.527L1431 244.777L1431 243.607L1440.75 246.357Z" fill="#F35C05"/>
<path d="M1440.75 248.927L1440.75 250.097L1431 247.348L1431 246.178L1440.75 248.927ZM1440.75 251.482L1440.75 252.652L1431 249.902L1431 248.732L1440.75 251.482ZM1440.75 254.036L1440.75 255.206L1431 252.457L1431 251.287L1440.75 254.036Z" fill="#F35C05"/>
<path d="M1440.75 256.605L1440.75 257.775L1431 255.025L1431 253.855L1440.75 256.605ZM1440.75 259.159L1440.75 260.329L1431 257.58L1431 256.41L1440.75 259.159ZM1440.75 261.714L1440.75 262.884L1431 260.134L1431 258.964L1440.75 261.714Z" fill="#F35C05"/>
<path d="M1440.75 264.285L1440.75 265.455L1431 262.705L1431 261.535L1440.75 264.285ZM1440.75 266.839L1440.75 268.009L1431 265.26L1431 264.09L1440.75 266.839ZM1440.75 269.394L1440.75 270.564L1431 267.814L1431 266.644L1440.75 269.394Z" fill="#F35C05"/>
<path d="M1440.75 271.962L1440.75 273.132L1431 270.383L1431 269.213L1440.75 271.962ZM1440.75 274.517L1440.75 275.687L1431 272.937L1431 271.767L1440.75 274.517ZM1440.75 277.071L1440.75 278.241L1431 275.492L1431 274.322L1440.75 277.071Z" fill="#F35C05"/>
<path d="M1440.75 279.64L1440.75 280.81L1431 278.061L1431 276.891L1440.75 279.64ZM1440.75 282.195L1440.75 283.365L1431 280.615L1431 279.445L1440.75 282.195ZM1440.75 284.749L1440.75 285.919L1431 283.17L1431 282L1440.75 284.749Z" fill="#F35C05"/>
<path d="M1440.75 287.32L1440.75 288.49L1431 285.74L1431 284.57L1440.75 287.32ZM1440.75 289.874L1440.75 291.044L1431 288.295L1431 287.125L1440.75 289.874ZM1440.75 292.429L1440.75 293.599L1431 290.849L1431 289.679L1440.75 292.429Z" fill="#F35C05"/>
<path d="M1440.75 294.998L1440.75 296.168L1431 293.418L1431 292.248L1440.75 294.998ZM1440.75 297.552L1440.75 298.722L1431 295.973L1431 294.803L1440.75 297.552ZM1440.75 300.107L1440.75 301.277L1431 298.527L1431 297.357L1440.75 300.107Z" fill="#F35C05"/>
<path d="M1440.75 302.677L1440.75 303.847L1431 301.098L1431 299.928L1440.75 302.677ZM1440.75 305.232L1440.75 306.402L1431 303.652L1431 302.482L1440.75 305.232ZM1440.75 307.786L1440.75 308.956L1431 306.207L1431 305.037L1440.75 307.786Z" fill="#F35C05"/>
<path d="M1440.75 310.355L1440.75 311.525L1431 308.775L1431 307.605L1440.75 310.355ZM1440.75 312.909L1440.75 314.079L1431 311.33L1431 310.16L1440.75 312.909ZM1440.75 315.464L1440.75 316.634L1431 313.884L1431 312.714L1440.75 315.464Z" fill="#F35C05"/>
<path d="M1440.75 318.033L1440.75 319.203L1431 316.453L1431 315.283L1440.75 318.033ZM1440.75 320.587L1440.75 321.757L1431 319.008L1431 317.838L1440.75 320.587ZM1440.75 323.142L1440.75 324.312L1431 321.562L1431 320.392L1440.75 323.142Z" fill="#F35C05"/>
<path d="M1440.75 325.712L1440.75 326.882L1431 324.133L1431 322.963L1440.75 325.712ZM1440.75 328.267L1440.75 329.437L1431 326.687L1431 325.517L1440.75 328.267ZM1440.75 330.821L1440.75 331.991L1431 329.242L1431 328.072L1440.75 330.821Z" fill="#F35C05"/>
<path d="M1440.75 333.39L1440.75 334.56L1431 331.811L1431 330.641L1440.75 333.39ZM1440.75 335.945L1440.75 337.115L1431 334.365L1431 333.195L1440.75 335.945ZM1440.75 338.499L1440.75 339.669L1431 336.92L1431 335.75L1440.75 338.499Z" fill="#F35C05"/>
<path d="M1440.75 341.07L1440.75 342.24L1431 339.49L1431 338.32L1440.75 341.07ZM1440.75 343.624L1440.75 344.794L1431 342.045L1431 340.875L1440.75 343.624ZM1440.75 346.179L1440.75 347.349L1431 344.599L1431 343.429L1440.75 346.179Z" fill="#F35C05"/>
<path d="M1440.75 348.748L1440.75 349.918L1431 347.168L1431 345.998L1440.75 348.748ZM1440.75 351.302L1440.75 352.472L1431 349.723L1431 348.553L1440.75 351.302ZM1440.75 353.857L1440.75 355.027L1431 352.277L1431 351.107L1440.75 353.857Z" fill="#F35C05"/>
<path d="M1440.75 356.425L1440.75 357.595L1431 354.846L1431 353.676L1440.75 356.425ZM1440.75 358.98L1440.75 360.15L1431 357.4L1431 356.23L1440.75 358.98ZM1440.75 361.534L1440.75 362.704L1431 359.955L1431 358.785L1440.75 361.534Z" fill="#F35C05"/>
<path d="M1440.75 364.105L1440.75 365.275L1431 362.525L1431 361.355L1440.75 364.105ZM1440.75 366.659L1440.75 367.829L1431 365.08L1431 363.91L1440.75 366.659ZM1440.75 369.214L1440.75 370.384L1431 367.634L1431 366.464L1440.75 369.214Z" fill="#F35C05"/>
<path d="M1440.75 371.783L1440.75 372.953L1431 370.203L1431 369.033L1440.75 371.783ZM1440.75 374.337L1440.75 375.507L1431 372.758L1431 371.588L1440.75 374.337ZM1440.75 376.892L1440.75 378.062L1431 375.312L1431 374.142L1440.75 376.892Z" fill="#F35C05"/>
<path d="M1440.75 379.462L1440.75 380.632L1431 377.883L1431 376.713L1440.75 379.462ZM1440.75 382.017L1440.75 383.187L1431 380.437L1431 379.267L1440.75 382.017ZM1440.75 384.571L1440.75 385.741L1431 382.992L1431 381.822L1440.75 384.571Z" fill="#F35C05"/>
<path d="M1440.75 387.14L1440.75 388.31L1431 385.561L1431 384.391L1440.75 387.14ZM1440.75 389.695L1440.75 390.865L1431 388.115L1431 386.945L1440.75 389.695ZM1440.75 392.249L1440.75 393.419L1431 390.67L1431 389.5L1440.75 392.249Z" fill="#F35C05"/>
<path d="M1440.75 394.818L1440.75 395.988L1431 393.238L1431 392.068L1440.75 394.818ZM1440.75 397.372L1440.75 398.542L1431 395.793L1431 394.623L1440.75 397.372ZM1440.75 399.927L1440.75 401.097L1431 398.347L1431 397.177L1440.75 399.927Z" fill="#F35C05"/>
<path d="M1440.75 402.498L1440.75 403.668L1431 400.918L1431 399.748L1440.75 402.498ZM1440.75 405.052L1440.75 406.222L1431 403.473L1431 402.303L1440.75 405.052ZM1440.75 407.607L1440.75 408.777L1431 406.027L1431 404.857L1440.75 407.607Z" fill="#F35C05"/>
<path d="M1440.75 410.175L1440.75 411.345L1431 408.596L1431 407.426L1440.75 410.175ZM1440.75 412.73L1440.75 413.9L1431 411.15L1431 409.98L1440.75 412.73ZM1440.75 415.284L1440.75 416.454L1431 413.705L1431 412.535L1440.75 415.284Z" fill="#F35C05"/>
<path d="M1440.75 417.853L1440.75 419.023L1431 416.274L1431 415.104L1440.75 417.853ZM1440.75 420.408L1440.75 421.578L1431 418.828L1431 417.658L1440.75 420.408ZM1440.75 422.962L1440.75 424.132L1431 421.383L1431 420.213L1440.75 422.962Z" fill="#F35C05"/>
<path d="M1440.75 425.533L1440.75 426.703L1431 423.953L1431 422.783L1440.75 425.533ZM1440.75 428.087L1440.75 429.257L1431 426.508L1431 425.338L1440.75 428.087ZM1440.75 430.642L1440.75 431.812L1431 429.062L1431 427.892L1440.75 430.642Z" fill="#F35C05"/>
<path d="M1440.75 433.21L1440.75 434.38L1431 431.631L1431 430.461L1440.75 433.21ZM1440.75 435.765L1440.75 436.935L1431 434.185L1431 433.015L1440.75 435.765ZM1440.75 438.319L1440.75 439.489L1431 436.74L1431 435.57L1440.75 438.319Z" fill="#F35C05"/>
<path d="M1440.75 440.89L1440.75 442.06L1431 439.311L1431 438.141L1440.75 440.89ZM1440.75 443.445L1440.75 444.615L1431 441.865L1431 440.695L1440.75 443.445ZM1440.75 445.999L1440.75 447.169L1431 444.42L1431 443.25L1440.75 445.999Z" fill="#F35C05"/>
<path d="M1440.75 448.568L1440.75 449.738L1431 446.988L1431 445.818L1440.75 448.568ZM1440.75 451.122L1440.75 452.292L1431 449.543L1431 448.373L1440.75 451.122ZM1440.75 453.677L1440.75 454.847L1431 452.097L1431 450.927L1440.75 453.677Z" fill="#F35C05"/>
<path d="M1440.75 456.246L1440.75 457.416L1431 454.666L1431 453.496L1440.75 456.246ZM1440.75 458.8L1440.75 459.97L1431 457.221L1431 456.051L1440.75 458.8ZM1440.75 461.355L1440.75 462.525L1431 459.775L1431 458.605L1440.75 461.355Z" fill="#F35C05"/>
<path d="M1440.75 463.925L1440.75 465.095L1431 462.346L1431 461.176L1440.75 463.925ZM1440.75 466.48L1440.75 467.65L1431 464.9L1431 463.73L1440.75 466.48ZM1440.75 469.034L1440.75 470.204L1431 467.455L1431 466.285L1440.75 469.034Z" fill="#F35C05"/>
<path d="M1440.75 471.603L1440.75 472.773L1431 470.024L1431 468.854L1440.75 471.603ZM1440.75 474.158L1440.75 475.328L1431 472.578L1431 471.408L1440.75 474.158ZM1440.75 476.712L1440.75 477.882L1431 475.133L1431 473.963L1440.75 476.712Z" fill="#F35C05"/>
<path d="M1440.75 479.283L1440.75 480.453L1431 477.703L1431 476.533L1440.75 479.283ZM1440.75 481.837L1440.75 483.007L1431 480.258L1431 479.088L1440.75 481.837ZM1440.75 484.392L1440.75 485.562L1431 482.812L1431 481.642L1440.75 484.392Z" fill="#F35C05"/>
<path d="M1440.75 486.96L1440.75 488.13L1431 485.381L1431 484.211L1440.75 486.96ZM1440.75 489.515L1440.75 490.685L1431 487.935L1431 486.765L1440.75 489.515ZM1440.75 492.069L1440.75 493.239L1431 490.49L1431 489.32L1440.75 492.069Z" fill="#F35C05"/>
<path d="M1440.75 494.638L1440.75 495.808L1431 493.059L1431 491.889L1440.75 494.638ZM1440.75 497.193L1440.75 498.363L1431 495.613L1431 494.443L1440.75 497.193ZM1440.75 499.747L1440.75 500.917L1431 498.168L1431 496.998L1440.75 499.747Z" fill="#F35C05"/>
<path d="M1440.75 502.318L1440.75 503.488L1431 500.738L1431 499.568L1440.75 502.318ZM1440.75 504.872L1440.75 506.042L1431 503.293L1431 502.123L1440.75 504.872ZM1440.75 507.427L1440.75 508.597L1431 505.847L1431 504.677L1440.75 507.427Z" fill="#F35C05"/>
<path d="M1440.75 509.996L1440.75 511.166L1431 508.416L1431 507.246L1440.75 509.996ZM1440.75 512.55L1440.75 513.72L1431 510.971L1431 509.801L1440.75 512.55ZM1440.75 515.105L1440.75 516.275L1431 513.525L1431 512.355L1440.75 515.105Z" fill="#F35C05"/>
<path d="M1440.75 517.675L1440.75 518.845L1431 516.096L1431 514.926L1440.75 517.675ZM1440.75 520.23L1440.75 521.4L1431 518.65L1431 517.48L1440.75 520.23ZM1440.75 522.784L1440.75 523.954L1431 521.205L1431 520.035L1440.75 522.784Z" fill="#F35C05"/>
<path d="M1440.75 525.353L1440.75 526.523L1431 523.774L1431 522.604L1440.75 525.353ZM1440.75 527.908L1440.75 529.078L1431 526.328L1431 525.158L1440.75 527.908ZM1440.75 530.462L1440.75 531.632L1431 528.883L1431 527.713L1440.75 530.462Z" fill="#F35C05"/>
<path d="M1440.75 533.031L1440.75 534.201L1431 531.451L1431 530.281L1440.75 533.031ZM1440.75 535.585L1440.75 536.755L1431 534.006L1431 532.836L1440.75 535.585ZM1440.75 538.14L1440.75 539.31L1431 536.56L1431 535.39L1440.75 538.14Z" fill="#F35C05"/>
<path d="M1440.75 540.71L1440.75 541.88L1431 539.131L1431 537.961L1440.75 540.71ZM1440.75 543.265L1440.75 544.435L1431 541.685L1431 540.515L1440.75 543.265ZM1440.75 545.819L1440.75 546.989L1431 544.24L1431 543.07L1440.75 545.819Z" fill="#F35C05"/>
<path d="M1440.75 548.388L1440.75 549.558L1431 546.809L1431 545.639L1440.75 548.388ZM1440.75 550.943L1440.75 552.113L1431 549.363L1431 548.193L1440.75 550.943ZM1440.75 553.497L1440.75 554.667L1431 551.918L1431 550.748L1440.75 553.497Z" fill="#F35C05"/>
<path d="M1440.75 556.066L1440.75 557.236L1431 554.486L1431 553.316L1440.75 556.066ZM1440.75 558.62L1440.75 559.79L1431 557.041L1431 555.871L1440.75 558.62ZM1440.75 561.175L1440.75 562.345L1431 559.595L1431 558.425L1440.75 561.175Z" fill="#F35C05"/>
<path d="M1440.75 563.746L1440.75 564.916L1431 562.166L1431 560.996L1440.75 563.746ZM1440.75 566.3L1440.75 567.47L1431 564.721L1431 563.551L1440.75 566.3ZM1440.75 568.855L1440.75 570.025L1431 567.275L1431 566.105L1440.75 568.855Z" fill="#F35C05"/>
<path d="M1440.75 571.423L1440.75 572.593L1431 569.844L1431 568.674L1440.75 571.423ZM1440.75 573.978L1440.75 575.148L1431 572.398L1431 571.228L1440.75 573.978ZM1440.75 576.532L1440.75 577.702L1431 574.953L1431 573.783L1440.75 576.532Z" fill="#F35C05"/>
<path d="M1440.75 579.103L1440.75 580.273L1431 577.524L1431 576.354L1440.75 579.103ZM1440.75 581.658L1440.75 582.828L1431 580.078L1431 578.908L1440.75 581.658ZM1440.75 584.212L1440.75 585.382L1431 582.633L1431 581.463L1440.75 584.212Z" fill="#F35C05"/>
<path d="M1440.75 586.781L1440.75 587.951L1431 585.201L1431 584.031L1440.75 586.781ZM1440.75 589.335L1440.75 590.505L1431 587.756L1431 586.586L1440.75 589.335ZM1440.75 591.89L1440.75 593.06L1431 590.31L1431 589.14L1440.75 591.89Z" fill="#F35C05"/>
<path d="M1440.75 594.458L1440.75 595.628L1431 592.879L1431 591.709L1440.75 594.458ZM1440.75 597.013L1440.75 598.183L1431 595.433L1431 594.263L1440.75 597.013ZM1440.75 599.567L1440.75 600.737L1431 597.988L1431 596.818L1440.75 599.567Z" fill="#F35C05"/>
<path d="M1440.75 602.138L1440.75 603.308L1431 600.559L1431 599.389L1440.75 602.138ZM1440.75 604.693L1440.75 605.863L1431 603.113L1431 601.943L1440.75 604.693ZM1440.75 607.247L1440.75 608.417L1431 605.668L1431 604.498L1440.75 607.247Z" fill="#F35C05"/>
<path d="M1440.75 609.816L1440.75 610.986L1431 608.236L1431 607.066L1440.75 609.816ZM1440.75 612.37L1440.75 613.54L1431 610.791L1431 609.621L1440.75 612.37ZM1440.75 614.925L1440.75 616.095L1431 613.345L1431 612.175L1440.75 614.925Z" fill="#F35C05"/>
<path d="M1440.75 617.496L1440.75 618.666L1431 615.916L1431 614.746L1440.75 617.496ZM1440.75 620.05L1440.75 621.22L1431 618.471L1431 617.301L1440.75 620.05ZM1440.75 622.605L1440.75 623.775L1431 621.025L1431 619.855L1440.75 622.605Z" fill="#F35C05"/>
<path d="M1440.75 625.173L1440.75 626.343L1431 623.594L1431 622.424L1440.75 625.173ZM1440.75 627.728L1440.75 628.898L1431 626.148L1431 624.978L1440.75 627.728ZM1440.75 630.282L1440.75 631.452L1431 628.703L1431 627.533L1440.75 630.282Z" fill="#F35C05"/>
<path d="M1440.75 632.851L1440.75 634.021L1431 631.272L1431 630.102L1440.75 632.851ZM1440.75 635.406L1440.75 636.576L1431 633.826L1431 632.656L1440.75 635.406ZM1440.75 637.96L1440.75 639.13L1431 636.381L1431 635.211L1440.75 637.96Z" fill="#F35C05"/>
<path d="M1440.75 640.531L1440.75 641.701L1431 638.951L1431 637.781L1440.75 640.531ZM1440.75 643.085L1440.75 644.255L1431 641.506L1431 640.336L1440.75 643.085ZM1440.75 645.64L1440.75 646.81L1431 644.06L1431 642.89L1440.75 645.64Z" fill="#F35C05"/>
<path d="M1440.75 648.208L1440.75 649.378L1431 646.629L1431 645.459L1440.75 648.208ZM1440.75 650.763L1440.75 651.933L1431 649.183L1431 648.013L1440.75 650.763ZM1440.75 653.317L1440.75 654.487L1431 651.738L1431 650.568L1440.75 653.317Z" fill="#F35C05"/>
<path d="M1440.75 655.888L1440.75 657.058L1431 654.309L1431 653.139L1440.75 655.888ZM1440.75 658.443L1440.75 659.613L1431 656.863L1431 655.693L1440.75 658.443ZM1440.75 660.997L1440.75 662.167L1431 659.418L1431 658.248L1440.75 660.997Z" fill="#F35C05"/>
<path d="M1440.75 663.566L1440.75 664.736L1431 661.986L1431 660.816L1440.75 663.566ZM1440.75 666.12L1440.75 667.29L1431 664.541L1431 663.371L1440.75 666.12ZM1440.75 668.675L1440.75 669.845L1431 667.095L1431 665.925L1440.75 668.675Z" fill="#F35C05"/>
<path d="M1440.75 671.244L1440.75 672.414L1431 669.664L1431 668.494L1440.75 671.244ZM1440.75 673.798L1440.75 674.968L1431 672.219L1431 671.049L1440.75 673.798ZM1440.75 676.353L1440.75 677.523L1431 674.773L1431 673.603L1440.75 676.353Z" fill="#F35C05"/>
<path d="M1440.75 678.923L1440.75 680.093L1431 677.344L1431 676.174L1440.75 678.923ZM1440.75 681.478L1440.75 682.648L1431 679.898L1431 678.728L1440.75 681.478ZM1440.75 684.032L1440.75 685.202L1431 682.453L1431 681.283L1440.75 684.032Z" fill="#F35C05"/>
<path d="M1440.75 686.601L1440.75 687.771L1431 685.022L1431 683.852L1440.75 686.601ZM1440.75 689.156L1440.75 690.326L1431 687.576L1431 686.406L1440.75 689.156ZM1440.75 691.71L1440.75 692.88L1431 690.131L1431 688.961L1440.75 691.71Z" fill="#F35C05"/>
<path d="M1440.75 694.281L1440.75 695.451L1431 692.701L1431 691.531L1440.75 694.281ZM1440.75 696.835L1440.75 698.005L1431 695.256L1431 694.086L1440.75 696.835ZM1440.75 699.39L1440.75 700.56L1431 697.81L1431 696.64L1440.75 699.39Z" fill="#F35C05"/>
<path d="M1440.75 701.958L1440.75 703.128L1431 700.379L1431 699.209L1440.75 701.958ZM1440.75 704.513L1440.75 705.683L1431 702.933L1431 701.763L1440.75 704.513ZM1440.75 707.067L1440.75 708.237L1431 705.488L1431 704.318L1440.75 707.067Z" fill="#F35C05"/>
<path d="M1440.75 709.636L1440.75 710.806L1431 708.057L1431 706.887L1440.75 709.636ZM1440.75 712.191L1440.75 713.361L1431 710.611L1431 709.441L1440.75 712.191ZM1440.75 714.745L1440.75 715.915L1431 713.166L1431 711.996L1440.75 714.745Z" fill="#F35C05"/>
<path d="M1440.75 717.316L1440.75 718.486L1431 715.736L1431 714.566L1440.75 717.316ZM1440.75 719.87L1440.75 721.04L1431 718.291L1431 717.121L1440.75 719.87ZM1440.75 722.425L1440.75 723.595L1431 720.845L1431 719.675L1440.75 722.425Z" fill="#F35C05"/>
<path d="M1440.75 724.994L1440.75 726.164L1431 723.414L1431 722.244L1440.75 724.994ZM1440.75 727.548L1440.75 728.718L1431 725.969L1431 724.799L1440.75 727.548ZM1440.75 730.103L1440.75 731.273L1431 728.523L1431 727.353L1440.75 730.103Z" fill="#F35C05"/>
<path d="M1440.75 732.673L1440.75 733.843L1431 731.094L1431 729.924L1440.75 732.673ZM1440.75 735.228L1440.75 736.398L1431 733.648L1431 732.478L1440.75 735.228ZM1440.75 737.782L1440.75 738.952L1431 736.203L1431 735.033L1440.75 737.782Z" fill="#F35C05"/>
<path d="M1440.75 740.351L1440.75 741.521L1431 738.772L1431 737.602L1440.75 740.351ZM1440.75 742.906L1440.75 744.076L1431 741.326L1431 740.156L1440.75 742.906ZM1440.75 745.46L1440.75 746.63L1431 743.881L1431 742.711L1440.75 745.46Z" fill="#F35C05"/>
<path d="M1440.75 748.029L1440.75 749.199L1431 746.449L1431 745.279L1440.75 748.029ZM1440.75 750.583L1440.75 751.753L1431 749.004L1431 747.834L1440.75 750.583ZM1440.75 753.138L1440.75 754.308L1431 751.558L1431 750.388L1440.75 753.138Z" fill="#F35C05"/>
<path d="M1440.75 755.708L1440.75 756.878L1431 754.129L1431 752.959L1440.75 755.708ZM1440.75 758.263L1440.75 759.433L1431 756.683L1431 755.513L1440.75 758.263ZM1440.75 760.817L1440.75 761.987L1431 759.238L1431 758.068L1440.75 760.817Z" fill="#F35C05"/>
<path d="M1440.75 763.386L1440.75 764.556L1431 761.807L1431 760.637L1440.75 763.386ZM1440.75 765.941L1440.75 767.111L1431 764.361L1431 763.191L1440.75 765.941ZM1440.75 768.495L1440.75 769.665L1431 766.916L1431 765.746L1440.75 768.495Z" fill="#F35C05"/>
<path d="M1440.75 771.066L1440.75 772.236L1431 769.486L1431 768.316L1440.75 771.066ZM1440.75 773.62L1440.75 774.79L1431 772.041L1431 770.871L1440.75 773.62ZM1440.75 776.175L1440.75 777.345L1431 774.595L1431 773.425L1440.75 776.175Z" fill="#F35C05"/>
<path d="M1440.75 778.744L1440.75 779.914L1431 777.164L1431 775.994L1440.75 778.744ZM1440.75 781.298L1440.75 782.468L1431 779.719L1431 778.549L1440.75 781.298ZM1440.75 783.853L1440.75 785.023L1431 782.273L1431 781.103L1440.75 783.853Z" fill="#F35C05"/>
<path d="M1440.75 786.421L1440.75 787.591L1431 784.842L1431 783.672L1440.75 786.421ZM1440.75 788.976L1440.75 790.146L1431 787.396L1431 786.226L1440.75 788.976ZM1440.75 791.53L1440.75 792.7L1431 789.951L1431 788.781L1440.75 791.53Z" fill="#F35C05"/>
<path d="M1440.75 794.101L1440.75 795.271L1431 792.522L1431 791.352L1440.75 794.101ZM1440.75 796.656L1440.75 797.826L1431 795.076L1431 793.906L1440.75 796.656ZM1440.75 799.21L1440.75 800.38L1431 797.631L1431 796.461L1440.75 799.21Z" fill="#F35C05"/>
<path d="M1440.75 801.779L1440.75 802.949L1431 800.199L1431 799.029L1440.75 801.779ZM1440.75 804.333L1440.75 805.503L1431 802.754L1431 801.584L1440.75 804.333ZM1440.75 806.888L1440.75 808.058L1431 805.308L1431 804.138L1440.75 806.888Z" fill="#F35C05"/>
<path d="M1440.75 809.458L1440.75 810.628L1431 807.879L1431 806.709L1440.75 809.458ZM1440.75 812.013L1440.75 813.183L1431 810.433L1431 809.263L1440.75 812.013ZM1440.75 814.567L1440.75 815.737L1431 812.988L1431 811.818L1440.75 814.567Z" fill="#F35C05"/>
<path d="M1440.75 817.136L1440.75 818.306L1431 815.557L1431 814.387L1440.75 817.136ZM1440.75 819.691L1440.75 820.861L1431 818.111L1431 816.941L1440.75 819.691ZM1440.75 822.245L1440.75 823.415L1431 820.666L1431 819.496L1440.75 822.245Z" fill="#F35C05"/>
<path d="M1440.75 824.816L1440.75 825.986L1431 823.236L1431 822.066L1440.75 824.816ZM1440.75 827.37L1440.75 828.54L1431 825.791L1431 824.621L1440.75 827.37ZM1440.75 829.925L1440.75 831.095L1431 828.345L1431 827.175L1440.75 829.925Z" fill="#F35C05"/>
<path d="M1440.75 832.494L1440.75 833.664L1431 830.914L1431 829.744L1440.75 832.494ZM1440.75 835.048L1440.75 836.218L1431 833.469L1431 832.299L1440.75 835.048ZM1440.75 837.603L1440.75 838.773L1431 836.023L1431 834.853L1440.75 837.603Z" fill="#F35C05"/>
<path d="M1440.75 840.171L1440.75 841.341L1431 838.592L1431 837.422L1440.75 840.171ZM1440.75 842.726L1440.75 843.896L1431 841.146L1431 839.976L1440.75 842.726ZM1440.75 845.28L1440.75 846.45L1431 843.701L1431 842.531L1440.75 845.28Z" fill="#F35C05"/>
<path d="M1440.75 847.851L1440.75 849.021L1431 846.272L1431 845.102L1440.75 847.851ZM1440.75 850.406L1440.75 851.576L1431 848.826L1431 847.656L1440.75 850.406ZM1440.75 852.96L1440.75 854.13L1431 851.381L1431 850.211L1440.75 852.96Z" fill="#F35C05"/>
<path d="M1440.75 855.529L1440.75 856.699L1431 853.949L1431 852.779L1440.75 855.529ZM1440.75 858.083L1440.75 859.253L1431 856.504L1431 855.334L1440.75 858.083ZM1440.75 860.638L1440.75 861.808L1431 859.058L1431 857.888L1440.75 860.638Z" fill="#F35C05"/>
<path d="M1440.75 863.208L1440.75 864.378L1431 861.629L1431 860.459L1440.75 863.208ZM1440.75 865.763L1440.75 866.933L1431 864.183L1431 863.013L1440.75 865.763ZM1440.75 868.317L1440.75 869.487L1431 866.738L1431 865.568L1440.75 868.317Z" fill="#F35C05"/>
<path d="M1440.75 870.886L1440.75 872.056L1431 869.307L1431 868.137L1440.75 870.886ZM1440.75 873.441L1440.75 874.611L1431 871.861L1431 870.691L1440.75 873.441ZM1440.75 875.995L1440.75 877.165L1431 874.416L1431 873.246L1440.75 875.995Z" fill="#F35C05"/>
<path d="M1440.75 878.564L1440.75 879.734L1431 876.984L1431 875.814L1440.75 878.564ZM1440.75 881.118L1440.75 882.288L1431 879.539L1431 878.369L1440.75 881.118ZM1440.75 883.673L1440.75 884.843L1431 882.093L1431 880.923L1440.75 883.673Z" fill="#F35C05"/>
<path d="M1440.75 886.244L1440.75 887.414L1431 884.664L1431 883.494L1440.75 886.244ZM1440.75 888.798L1440.75 889.968L1431 887.219L1431 886.049L1440.75 888.798ZM1440.75 891.353L1440.75 892.523L1431 889.773L1431 888.603L1440.75 891.353Z" fill="#F35C05"/>
<path d="M1440.75 893.921L1440.75 895.091L1431 892.342L1431 891.172L1440.75 893.921ZM1440.75 896.476L1440.75 897.646L1431 894.896L1431 893.726L1440.75 896.476ZM1440.75 899.03L1440.75 900.2L1431 897.451L1431 896.281L1440.75 899.03Z" fill="#F35C05"/>
<path d="M1440.75 901.601L1440.75 902.771L1431 900.022L1431 898.852L1440.75 901.601ZM1440.75 904.156L1440.75 905.326L1431 902.576L1431 901.406L1440.75 904.156ZM1440.75 906.71L1440.75 907.88L1431 905.131L1431 903.961L1440.75 906.71Z" fill="#F35C05"/>
<path d="M1440.75 909.279L1440.75 910.449L1431 907.699L1431 906.529L1440.75 909.279ZM1440.75 911.833L1440.75 913.003L1431 910.254L1431 909.084L1440.75 911.833ZM1440.75 914.388L1440.75 915.558L1431 912.808L1431 911.638L1440.75 914.388Z" fill="#F35C05"/>
<path d="M19.6519 260.356L21.25 259.433C21.5833 259.241 22 259.481 22 259.866V657.891C22 658.336 21.4614 658.56 21.1464 658.245L19.5483 656.646C19.4545 656.553 19.4019 656.426 19.4019 656.293V260.789C19.4019 260.61 19.4972 260.445 19.6519 260.356Z" fill="#F35C05"/>
<path d="M-15 137.5L21.8536 174.354C21.9473 174.447 22 174.574 22 174.707V788.293C22 788.426 22.0527 788.553 22.1464 788.646L56 822.5" stroke="white" stroke-width="0.5"/>
<path d="M1350.44 31.756C1350.65 31.7565 1350.84 31.8883 1350.91 32.0858L1364.42 69.4412C1364.54 69.7669 1364.3 70.1108 1363.96 70.1113L1348.01 70.1323C1347.8 70.1326 1347.61 70.0007 1347.54 69.8025L1334 32.3858C1333.89 32.0593 1334.13 31.7148 1334.48 31.7157L1350.44 31.756ZM1373.02 31.8136C1373.23 31.8141 1373.42 31.9459 1373.49 32.1434L1386.97 69.4109C1387.09 69.7366 1386.85 70.0806 1386.5 70.0811L1370.56 70.103C1370.35 70.1033 1370.16 69.9714 1370.09 69.7731L1356.58 32.4424C1356.46 32.116 1356.71 31.7715 1357.05 31.7724L1373.02 31.8136ZM1396.18 31.8731C1396.39 31.8737 1396.57 32.0055 1396.65 32.203L1410.1 69.3806C1410.21 69.7063 1409.97 70.0503 1409.63 70.0507L1393.68 70.0718C1393.47 70.0721 1393.28 69.9401 1393.21 69.7419L1379.74 32.502C1379.62 32.1756 1379.86 31.831 1380.21 31.8319L1396.18 31.8731ZM1419.33 31.9317C1419.54 31.9323 1419.73 32.0641 1419.8 32.2616L1433.22 69.3494C1433.34 69.6751 1433.1 70.019 1432.75 70.0195L1416.81 70.0406C1416.6 70.0408 1416.41 69.9089 1416.34 69.7107L1402.89 32.5616C1402.78 32.2351 1403.02 31.8906 1403.37 31.8915L1419.33 31.9317ZM1442.49 31.9913C1442.7 31.9918 1442.89 32.1236 1442.96 32.3211L1446.47 42.0299C1446.49 42.0844 1446.5 42.142 1446.5 42.2V69.5026C1446.5 69.7785 1446.28 70.0022 1446 70.0026L1439.93 70.0103C1439.72 70.0106 1439.53 69.8786 1439.46 69.6804L1426.05 32.6202C1425.93 32.2937 1426.18 31.9492 1426.52 31.9501L1442.49 31.9913Z" fill="url(#paint1_linear_151_204)"/>
<path d="M1228.67 60V56.22L1245.67 48.156V44.628H1229.07V42H1246.46L1248.55 44.088V49.128L1246.82 50.856L1232.06 57.372H1248.55V60H1228.67ZM1253.51 60L1251.42 57.912V44.088L1253.51 42H1270.86L1272.95 44.088V57.912L1270.86 60H1253.51ZM1254.3 56.184L1268.63 44.628H1254.3V56.184ZM1255.74 57.372H1270.07V45.816L1255.74 57.372ZM1275.82 60V56.22L1292.81 48.156V44.628H1276.21V42H1293.6L1295.69 44.088V49.128L1293.96 50.856L1279.2 57.372H1295.69V60H1275.82ZM1315.46 60V54.564H1300.3L1298.21 52.476V41.964H1301.09V51.936H1315.46V42H1318.34V60H1315.46Z" fill="white"/>
<path d="M1218.46 70.0005H1342.28C1342.63 70.0005 1342.87 69.6537 1342.75 69.3272L1329.08 32.3272C1329.01 32.1308 1328.82 32.0005 1328.61 32.0005L1204.72 32C1204.37 32 1204.13 32.3475 1204.25 32.6741L1218 69.6746C1218.07 69.8705 1218.26 70.0005 1218.46 70.0005Z" stroke="white"/>
<path d="M609.114 42V32H620.354L621.514 33.16V38.4L620.354 39.56H612.314V42H609.114ZM612.314 36.9H618.314V34.68H612.314V36.9ZM637.278 42L636.118 40.84V33.16L637.278 32H647.718L648.878 33.16V40.84L647.718 42H637.278ZM639.318 39.32H645.678V34.68H639.318V39.32ZM663.474 42V32H674.714L675.874 33.16V37.1L674.714 38.26H672.134L675.394 40.9V42H671.974L667.894 38.26H666.674V42H663.474ZM666.674 35.9H672.674V34.68H666.674V35.9ZM694.662 42V34.68H689.882V32H702.622V34.68H697.862V42H694.662ZM716.622 42V33.16L717.782 32H728.302V34.68H719.822V36.28H726.522V38.64H719.822V42H716.622ZM743.673 42L742.513 40.84V33.16L743.673 32H754.113L755.273 33.16V40.84L754.113 42H743.673ZM745.713 39.32H752.073V34.68H745.713V39.32ZM769.868 42V32H773.068V39.32H780.148V42H769.868ZM793.957 42V39.5H797.797V34.5H793.957V32H804.837V34.5H800.997V39.5H804.837V42H793.957ZM820.29 42L819.13 40.84V33.16L820.29 32H830.73L831.89 33.16V40.84L830.73 42H820.29ZM822.33 39.32H828.69V34.68H822.33V39.32Z" fill="white"/>
<path d="M628.352 8.02155C628.447 7.92295 628.577 7.86724 628.714 7.86734L811.793 8.00017C811.926 8.00027 812.053 8.05294 812.146 8.14662L814.146 10.1468C814.461 10.4618 814.238 11.0003 813.793 11.0003H626.671C626.231 11.0003 626.005 10.4725 626.31 10.1545L628.352 8.02155Z" fill="#F35C05"/>
<path d="M110 -1.5L127.854 16.354C127.947 16.4475 128.074 16.5002 128.207 16.5004L618.792 17.4996C618.925 17.4998 619.053 17.4471 619.147 17.3531L628.354 8.14645C628.447 8.05268 628.574 8 628.707 8H719.75H811.793C811.926 8 812.053 8.05268 812.146 8.14645L820.853 16.8533C820.947 16.9472 821.075 16.9999 821.207 16.9998L1311.29 16.5002C1311.43 16.5001 1311.55 16.4474 1311.65 16.3538L1329 -1" stroke="white" stroke-width="0.5"/>
<path d="M42.92 60.432V39.568H47.976V41.648H45.16V58.352H47.976V60.432H42.92ZM49.7488 58V42H61.0128L62.8688 43.856V51.44L61.0128 53.296H52.2128V58H49.7488ZM52.2128 50.992H60.4048V44.24H52.2128V50.992ZM65.4363 58V42H76.7003L78.5563 43.856V49.488L76.7003 51.344H72.7003L78.6203 56.24V58H76.8283L69.1803 51.344H67.9003V58H65.4363ZM67.9003 49.104H76.0923V44.24H67.9003V49.104ZM83.0423 58L81.1863 56.144V43.856L83.0423 42H93.0263L94.8823 43.856V56.144L93.0263 58H83.0423ZM83.6503 55.76H92.4183V44.24H83.6503V55.76ZM96.96 58V55.76H101.408L103.808 53.36V44.24H96.96V42H109.504V44.24H106.272V54.16L102.432 58H96.96ZM113.605 58L111.749 56.144V42H123.685V44.24H114.213V48.784H122.949V51.024H114.213V55.76H123.685V58H113.605ZM128.105 58L126.249 56.144V43.856L128.105 42H139.209V47.504H136.841V44.24H128.713V55.76H139.209V58H128.105ZM146.46 58V44.24H140.828V42H154.492V44.24H148.924V58H146.46ZM156.093 58V55.76H166.173V51.728L157.949 49.616L156.093 47.76V43.856L157.949 42H168.093V44.24H158.557V47.408L166.845 49.552L168.637 51.344V56.144L166.781 58H156.093ZM171.186 58V55.92H182.29V58H171.186ZM186.699 58L184.843 56.144V43.856L186.699 42H196.683L198.539 43.856V56.144L196.683 58H186.699ZM187.307 55.76H196.075V44.24H187.307V55.76ZM206.188 58L200.14 43.536V42H202.284L207.372 55.152L212.492 42H214.636V43.536L208.556 58H206.188ZM218.105 58L216.249 56.144V42H228.185V44.24H218.713V48.784H227.449V51.024H218.713V55.76H228.185V58H218.105ZM230.749 58V42H242.013L243.869 43.856V49.488L242.013 51.344H238.013L243.933 56.24V58H242.141L234.493 51.344H233.213V58H230.749ZM233.213 49.104H241.405V44.24H233.213V49.104ZM251.594 58L245.546 43.536V42H247.69L252.778 55.152L257.898 42H260.042V43.536L253.962 58H251.594ZM261.648 58V55.76H266.384V44.24H261.648V42H273.616V44.24H268.848V55.76H273.616V58H261.648ZM277.542 58L275.686 56.144V42H287.622V44.24H278.15V48.784H286.886V51.024H278.15V55.76H287.622V58H277.542ZM294.77 58L289.554 43.536V42H291.826L296.114 54.96L299.794 42H302.674L306.386 54.96L310.642 42H312.914V43.536L307.73 58H304.722L301.234 45.104L297.778 58H294.77ZM319.571 60.432H314.515V58.352H317.331V41.648H314.515V39.568H319.571V60.432Z" fill="black"/>
<path d="M908 52H1164" stroke="black"/>
<rect x="930" y="42" width="211" height="20" rx="1" fill="black"/>
<path d="M938.704 58V47.68H934.48V46H944.728V47.68H940.552V58H938.704ZM945.929 58V46H947.777V51.184H954.353V46H956.201V58H954.353V52.864H947.777V58H945.929ZM959.508 58L958.116 56.608V46H959.964V56.32H965.988V46H967.836V56.608L966.444 58H959.508ZM969.765 58V46H978.213L979.605 47.392V51.616L978.213 53.008H975.213L979.653 56.68V58H978.309L972.573 53.008H971.613V58H969.765ZM971.613 51.328H977.757V47.68H971.613V51.328ZM981.577 58V56.32H989.137V53.296L982.969 51.712L981.577 50.32V47.392L982.969 46H990.577V47.68H983.425V50.056L989.641 51.664L990.985 53.008V56.608L989.593 58H981.577ZM992.898 58V46H998.73L1003.17 50.68V56.608L1001.78 58H992.898ZM994.746 56.32H1001.32V51.28L997.962 47.68H994.746V56.32ZM1011.4 46L1016.66 56.848V58H1015.1L1013.8 55.12H1007.23L1005.93 58H1004.37V56.848L1009.63 46H1011.4ZM1007.99 53.44H1013.03L1010.51 47.872L1007.99 53.44ZM1019.76 58V53.584L1015.22 47.152V46H1016.69L1020.69 51.928L1024.68 46H1026.14V47.152L1021.61 53.584V58H1019.76ZM1037.68 46H1039.12L1035.74 58H1034.3L1037.68 46ZM1040.83 46H1042.27L1038.88 58H1037.44L1040.83 46ZM1043.97 46H1045.41L1042.03 58H1040.59L1043.97 46ZM1055.44 58L1054.05 56.608V47.392L1055.44 46H1062.93L1064.32 47.392V56.608L1062.93 58H1055.44ZM1055.89 55.456L1061.68 47.68H1055.89V55.456ZM1056.69 56.32H1062.47V48.544L1056.69 56.32ZM1073.49 58V54.376H1067.39L1066 52.984V45.976H1067.85V52.696H1073.49V46H1075.34V58H1073.49ZM1077.25 52.744V50.584H1079.41V52.744H1077.25ZM1077.25 58V55.84H1079.41V58H1077.25ZM1081.33 58V56.32H1088.41V52.792H1081.98V51.112H1088.41V47.68H1081.33V46H1088.86L1090.26 47.392V50.896L1089.22 51.928L1090.26 52.96V56.608L1088.86 58H1081.33ZM1092.59 58V56.32H1099.7V53.272H1093.31L1091.94 51.904V47.392L1093.34 46H1100.15L1101.54 47.392V56.632L1100.18 58H1092.59ZM1093.79 51.592H1099.7V47.68H1093.79V51.592ZM1110.67 58V46H1119.12L1120.51 47.392V53.08L1119.12 54.472H1112.52V58H1110.67ZM1112.52 52.744H1118.66V47.68H1112.52V52.744ZM1121.73 58V57.088L1123.77 46H1126.26L1128.71 55.504L1131.18 46H1133.68L1135.72 57.088V58H1133.94L1132.36 48.04L1129.72 58H1127.7L1125.09 48.04L1123.5 58H1121.73Z" fill="white"/>
<rect x="904.5" y="49.5" width="5" height="5" rx="0.5" fill="black" stroke="black"/>
<rect x="1161.5" y="49.5" width="5" height="5" rx="0.5" fill="black" stroke="black"/>
<path d="M658.444 64.928C658.444 65.088 658.5 65.228 658.612 65.348C658.732 65.46 658.872 65.516 659.032 65.516C659.192 65.516 659.328 65.46 659.44 65.348C659.56 65.228 659.62 65.088 659.62 64.928C659.62 64.768 659.56 64.632 659.44 64.52C659.328 64.4 659.192 64.34 659.032 64.34C658.872 64.34 658.732 64.4 658.612 64.52C658.5 64.632 658.444 64.768 658.444 64.928ZM657.604 64.928C657.604 64.664 657.668 64.424 657.796 64.208C657.924 63.992 658.096 63.82 658.312 63.692C658.528 63.564 658.768 63.5 659.032 63.5C659.296 63.5 659.536 63.564 659.752 63.692C659.968 63.82 660.14 63.992 660.268 64.208C660.396 64.424 660.46 64.664 660.46 64.928C660.46 65.192 660.396 65.432 660.268 65.648C660.14 65.864 659.968 66.036 659.752 66.164C659.536 66.292 659.296 66.356 659.032 66.356C658.768 66.356 658.528 66.292 658.312 66.164C658.096 66.036 657.924 65.864 657.796 65.648C657.668 65.432 657.604 65.192 657.604 64.928ZM656.152 64.4C656.144 64.456 656.128 64.556 656.104 64.7C656.08 64.844 656.06 64.996 656.044 65.156C656.028 65.316 656.02 65.452 656.02 65.564C656.02 65.812 656.02 66.084 656.02 66.38C656.02 66.676 656.02 66.972 656.02 67.268C656.02 67.564 656.02 67.84 656.02 68.096C656.02 68.256 656.02 68.476 656.02 68.756C656.02 69.036 656.02 69.352 656.02 69.704C656.02 70.048 656.02 70.408 656.02 70.784C656.02 71.16 656.02 71.528 656.02 71.888C656.02 72.24 656.02 72.564 656.02 72.86C656.02 73.148 656.02 73.384 656.02 73.568C656.02 73.936 655.904 74.232 655.672 74.456C655.448 74.68 655.104 74.792 654.64 74.792C654.4 74.792 654.16 74.788 653.92 74.78C653.688 74.772 653.456 74.76 653.224 74.744C653 74.728 652.776 74.708 652.552 74.684L652.372 72.896C652.628 72.944 652.872 72.98 653.104 73.004C653.344 73.02 653.536 73.028 653.68 73.028C653.832 73.028 653.936 73 653.992 72.944C654.056 72.88 654.092 72.772 654.1 72.62C654.1 72.564 654.1 72.428 654.1 72.212C654.108 71.996 654.112 71.736 654.112 71.432C654.112 71.12 654.112 70.792 654.112 70.448C654.112 70.096 654.112 69.76 654.112 69.44C654.112 69.12 654.112 68.84 654.112 68.6C654.112 68.36 654.112 68.192 654.112 68.096C654.112 67.952 654.112 67.728 654.112 67.424C654.112 67.12 654.112 66.796 654.112 66.452C654.112 66.108 654.112 65.808 654.112 65.552C654.112 65.384 654.1 65.18 654.076 64.94C654.052 64.692 654.028 64.512 654.004 64.4H656.152ZM649.996 66.26C650.18 66.284 650.384 66.308 650.608 66.332C650.84 66.348 651.048 66.356 651.232 66.356C651.336 66.356 651.532 66.356 651.82 66.356C652.108 66.356 652.452 66.356 652.852 66.356C653.252 66.356 653.684 66.356 654.148 66.356C654.612 66.356 655.076 66.356 655.54 66.356C656.012 66.356 656.452 66.356 656.86 66.356C657.276 66.356 657.636 66.356 657.94 66.356C658.244 66.356 658.464 66.356 658.6 66.356C658.784 66.356 659.004 66.348 659.26 66.332C659.516 66.316 659.728 66.296 659.896 66.272V68.168C659.696 68.152 659.476 68.14 659.236 68.132C658.996 68.124 658.788 68.12 658.612 68.12C658.476 68.12 658.256 68.12 657.952 68.12C657.656 68.12 657.3 68.12 656.884 68.12C656.476 68.12 656.04 68.12 655.576 68.12C655.112 68.12 654.648 68.12 654.184 68.12C653.72 68.12 653.284 68.12 652.876 68.12C652.476 68.12 652.132 68.12 651.844 68.12C651.556 68.12 651.352 68.12 651.232 68.12C651.056 68.12 650.848 68.124 650.608 68.132C650.376 68.14 650.172 68.152 649.996 68.168V66.26ZM653.224 69.752C653.08 70.024 652.908 70.32 652.708 70.64C652.516 70.952 652.308 71.268 652.084 71.588C651.868 71.9 651.656 72.192 651.448 72.464C651.248 72.728 651.068 72.948 650.908 73.124L649.336 72.056C649.536 71.864 649.74 71.644 649.948 71.396C650.156 71.148 650.36 70.888 650.56 70.616C650.76 70.344 650.944 70.068 651.112 69.788C651.288 69.508 651.44 69.236 651.568 68.972L653.224 69.752ZM658.456 68.912C658.608 69.104 658.776 69.336 658.96 69.608C659.144 69.872 659.332 70.156 659.524 70.46C659.716 70.756 659.896 71.048 660.064 71.336C660.232 71.616 660.376 71.864 660.496 72.08L658.792 73.016C658.656 72.744 658.504 72.46 658.336 72.164C658.176 71.86 658.008 71.56 657.832 71.264C657.664 70.968 657.496 70.692 657.328 70.436C657.16 70.18 657.008 69.96 656.872 69.776L658.456 68.912ZM671.632 68.24C671.792 68.248 671.996 68.26 672.244 68.276C672.5 68.292 672.76 68.304 673.024 68.312C673.288 68.32 673.516 68.324 673.708 68.324C673.956 68.324 674.232 68.324 674.536 68.324C674.848 68.324 675.176 68.324 675.52 68.324C675.864 68.324 676.212 68.324 676.564 68.324C676.924 68.324 677.276 68.324 677.62 68.324C677.964 68.324 678.292 68.324 678.604 68.324C678.916 68.324 679.196 68.324 679.444 68.324C679.7 68.324 679.912 68.324 680.08 68.324C680.352 68.324 680.62 68.312 680.884 68.288C681.156 68.264 681.38 68.248 681.556 68.24V70.532C681.404 70.524 681.18 70.512 680.884 70.496C680.596 70.472 680.328 70.46 680.08 70.46C679.912 70.46 679.7 70.46 679.444 70.46C679.188 70.46 678.904 70.46 678.592 70.46C678.28 70.46 677.952 70.46 677.608 70.46C677.264 70.46 676.912 70.46 676.552 70.46C676.2 70.46 675.852 70.46 675.508 70.46C675.164 70.46 674.836 70.46 674.524 70.46C674.22 70.46 673.948 70.46 673.708 70.46C673.364 70.46 672.992 70.468 672.592 70.484C672.2 70.5 671.88 70.516 671.632 70.532V68.24ZM695.812 72.8C695.812 72.624 695.812 72.36 695.812 72.008C695.812 71.648 695.812 71.24 695.812 70.784C695.812 70.328 695.812 69.856 695.812 69.368C695.812 68.872 695.812 68.396 695.812 67.94C695.812 67.484 695.812 67.08 695.812 66.728C695.812 66.376 695.812 66.116 695.812 65.948C695.812 65.708 695.8 65.444 695.776 65.156C695.752 64.868 695.716 64.612 695.668 64.388H697.936C697.912 64.612 697.884 64.856 697.852 65.12C697.828 65.384 697.816 65.66 697.816 65.948C697.816 66.116 697.816 66.376 697.816 66.728C697.816 67.08 697.816 67.484 697.816 67.94C697.816 68.396 697.816 68.868 697.816 69.356C697.816 69.844 697.816 70.32 697.816 70.784C697.816 71.24 697.816 71.648 697.816 72.008C697.816 72.36 697.816 72.624 697.816 72.8C697.816 72.904 697.82 73.068 697.828 73.292C697.844 73.508 697.864 73.736 697.888 73.976C697.912 74.216 697.932 74.428 697.948 74.612H695.668C695.708 74.356 695.74 74.052 695.764 73.7C695.796 73.348 695.812 73.048 695.812 72.8ZM697.384 67.472C697.784 67.576 698.236 67.712 698.74 67.88C699.244 68.04 699.752 68.212 700.264 68.396C700.776 68.58 701.252 68.76 701.692 68.936C702.14 69.112 702.5 69.268 702.772 69.404L701.944 71.432C701.608 71.256 701.24 71.084 700.84 70.916C700.448 70.74 700.048 70.572 699.64 70.412C699.24 70.244 698.844 70.092 698.452 69.956C698.068 69.812 697.712 69.684 697.384 69.572V67.472ZM724.66 66.008C724.596 66.136 724.536 66.296 724.48 66.488C724.432 66.672 724.388 66.832 724.348 66.968C724.276 67.248 724.188 67.568 724.084 67.928C723.988 68.28 723.868 68.652 723.724 69.044C723.58 69.428 723.408 69.816 723.208 70.208C723.016 70.592 722.792 70.96 722.536 71.312C722.176 71.792 721.748 72.248 721.252 72.68C720.764 73.104 720.216 73.488 719.608 73.832C719.008 74.168 718.356 74.452 717.652 74.684L716.068 72.944C716.876 72.76 717.572 72.528 718.156 72.248C718.74 71.968 719.244 71.652 719.668 71.3C720.1 70.94 720.472 70.564 720.784 70.172C721.04 69.852 721.256 69.516 721.432 69.164C721.608 68.804 721.752 68.448 721.864 68.096C721.976 67.736 722.056 67.396 722.104 67.076C721.984 67.076 721.792 67.076 721.528 67.076C721.272 67.076 720.972 67.076 720.628 67.076C720.292 67.076 719.936 67.076 719.56 67.076C719.192 67.076 718.832 67.076 718.48 67.076C718.128 67.076 717.804 67.076 717.508 67.076C717.22 67.076 716.992 67.076 716.824 67.076C716.528 67.076 716.232 67.084 715.936 67.1C715.648 67.108 715.424 67.12 715.264 67.136V65.084C715.392 65.1 715.552 65.116 715.744 65.132C715.936 65.148 716.132 65.164 716.332 65.18C716.532 65.188 716.696 65.192 716.824 65.192C716.968 65.192 717.156 65.192 717.388 65.192C717.628 65.192 717.892 65.192 718.18 65.192C718.476 65.192 718.78 65.192 719.092 65.192C719.412 65.192 719.728 65.192 720.04 65.192C720.352 65.192 720.644 65.192 720.916 65.192C721.196 65.192 721.44 65.192 721.648 65.192C721.856 65.192 722.012 65.192 722.116 65.192C722.252 65.192 722.424 65.188 722.632 65.18C722.84 65.164 723.036 65.132 723.22 65.084L724.66 66.008ZM743.632 66.464C743.608 66.616 743.592 66.796 743.584 67.004C743.576 67.204 743.572 67.392 743.572 67.568C743.58 67.88 743.588 68.208 743.596 68.552C743.604 68.888 743.612 69.236 743.62 69.596C743.636 69.956 743.648 70.32 743.656 70.688C743.672 71.056 743.684 71.424 743.692 71.792C743.7 72.152 743.708 72.512 743.716 72.872C743.724 73.224 743.728 73.568 743.728 73.904C743.736 74.248 743.616 74.532 743.368 74.756C743.128 74.98 742.808 75.092 742.408 75.092C742.2 75.092 741.98 75.088 741.748 75.08C741.524 75.08 741.304 75.072 741.088 75.056C740.872 75.048 740.668 75.04 740.476 75.032L740.368 73.388C740.608 73.42 740.852 73.444 741.1 73.46C741.348 73.476 741.544 73.484 741.688 73.484C741.8 73.484 741.88 73.452 741.928 73.388C741.976 73.324 742 73.228 742 73.1C742 72.884 741.996 72.64 741.988 72.368C741.988 72.096 741.984 71.808 741.976 71.504C741.976 71.192 741.972 70.872 741.964 70.544C741.964 70.216 741.96 69.884 741.952 69.548C741.944 69.204 741.932 68.868 741.916 68.54C741.908 68.204 741.896 67.88 741.88 67.568C741.872 67.408 741.86 67.228 741.844 67.028C741.828 66.828 741.804 66.64 741.772 66.464H743.632ZM737.632 68.072C737.776 68.096 737.968 68.116 738.208 68.132C738.456 68.148 738.664 68.156 738.832 68.156C738.944 68.156 739.124 68.156 739.372 68.156C739.628 68.156 739.928 68.156 740.272 68.156C740.616 68.156 740.98 68.156 741.364 68.156C741.748 68.156 742.128 68.156 742.504 68.156C742.888 68.156 743.24 68.156 743.56 68.156C743.888 68.156 744.164 68.156 744.388 68.156C744.612 68.156 744.756 68.156 744.82 68.156C744.996 68.156 745.192 68.148 745.408 68.132C745.624 68.108 745.788 68.088 745.9 68.072V69.824C745.74 69.816 745.568 69.812 745.384 69.812C745.2 69.804 745.04 69.8 744.904 69.8C744.856 69.8 744.72 69.8 744.496 69.8C744.28 69.8 744.004 69.8 743.668 69.8C743.332 69.8 742.968 69.8 742.576 69.8C742.184 69.8 741.788 69.8 741.388 69.8C740.988 69.8 740.612 69.8 740.26 69.8C739.916 69.8 739.62 69.8 739.372 69.8C739.124 69.8 738.96 69.8 738.88 69.8C738.704 69.8 738.496 69.804 738.256 69.812C738.024 69.82 737.816 69.832 737.632 69.848V68.072ZM737.008 72.776C737.488 72.56 737.96 72.308 738.424 72.02C738.888 71.732 739.316 71.428 739.708 71.108C740.108 70.788 740.456 70.468 740.752 70.148C741.056 69.828 741.284 69.528 741.436 69.248L742.384 69.26L742.408 70.676C742.256 70.948 742.028 71.248 741.724 71.576C741.428 71.896 741.084 72.22 740.692 72.548C740.308 72.876 739.908 73.188 739.492 73.484C739.076 73.772 738.668 74.02 738.268 74.228L737.008 72.776ZM766.816 64.568C766.808 64.744 766.796 64.94 766.78 65.156C766.772 65.364 766.768 65.6 766.768 65.864C766.768 66.096 766.768 66.376 766.768 66.704C766.768 67.024 766.768 67.344 766.768 67.664C766.768 67.984 766.768 68.256 766.768 68.48C766.768 69.08 766.732 69.612 766.66 70.076C766.596 70.54 766.5 70.952 766.372 71.312C766.244 71.672 766.088 71.992 765.904 72.272C765.728 72.552 765.524 72.812 765.292 73.052C765.028 73.332 764.72 73.588 764.368 73.82C764.024 74.044 763.676 74.236 763.324 74.396C762.972 74.556 762.648 74.684 762.352 74.78L760.828 73.172C761.452 73.036 762 72.852 762.472 72.62C762.952 72.38 763.372 72.076 763.732 71.708C763.932 71.492 764.096 71.276 764.224 71.06C764.352 70.836 764.448 70.596 764.512 70.34C764.584 70.076 764.632 69.784 764.656 69.464C764.688 69.136 764.704 68.764 764.704 68.348C764.704 68.116 764.704 67.844 764.704 67.532C764.704 67.22 764.704 66.912 764.704 66.608C764.704 66.304 764.704 66.056 764.704 65.864C764.704 65.6 764.696 65.364 764.68 65.156C764.664 64.94 764.644 64.744 764.62 64.568H766.816ZM761.26 64.676C761.252 64.828 761.24 64.972 761.224 65.108C761.216 65.236 761.212 65.408 761.212 65.624C761.212 65.728 761.212 65.884 761.212 66.092C761.212 66.292 761.212 66.524 761.212 66.788C761.212 67.052 761.212 67.328 761.212 67.616C761.212 67.896 761.212 68.172 761.212 68.444C761.212 68.716 761.212 68.964 761.212 69.188C761.212 69.404 761.212 69.576 761.212 69.704C761.212 69.856 761.216 70.04 761.224 70.256C761.24 70.472 761.252 70.66 761.26 70.82H759.148C759.156 70.7 759.168 70.528 759.184 70.304C759.2 70.08 759.208 69.876 759.208 69.692C759.208 69.564 759.208 69.392 759.208 69.176C759.208 68.952 759.208 68.704 759.208 68.432C759.208 68.16 759.208 67.884 759.208 67.604C759.208 67.316 759.208 67.044 759.208 66.788C759.208 66.524 759.208 66.292 759.208 66.092C759.208 65.884 759.208 65.728 759.208 65.624C759.208 65.512 759.204 65.364 759.196 65.18C759.188 64.996 759.176 64.828 759.16 64.676H761.26ZM786.976 64.256C786.944 64.456 786.92 64.68 786.904 64.928C786.896 65.168 786.896 65.392 786.904 65.6C786.912 65.992 786.92 66.396 786.928 66.812C786.936 67.22 786.944 67.64 786.952 68.072C786.968 68.504 786.98 68.94 786.988 69.38C787.004 69.812 787.016 70.248 787.024 70.688C787.032 71.12 787.04 71.552 787.048 71.984C787.056 72.416 787.064 72.844 787.072 73.268C787.08 73.692 786.96 74.024 786.712 74.264C786.472 74.504 786.096 74.624 785.584 74.624C785.192 74.624 784.824 74.616 784.48 74.6C784.136 74.592 783.78 74.576 783.412 74.552L783.244 72.668C783.508 72.708 783.784 72.74 784.072 72.764C784.36 72.788 784.6 72.8 784.792 72.8C784.928 72.8 785.028 72.76 785.092 72.68C785.156 72.6 785.188 72.472 785.188 72.296C785.188 72.024 785.188 71.728 785.188 71.408C785.188 71.08 785.184 70.732 785.176 70.364C785.176 69.996 785.172 69.616 785.164 69.224C785.164 68.832 785.156 68.432 785.14 68.024C785.132 67.616 785.12 67.208 785.104 66.8C785.096 66.392 785.08 65.992 785.056 65.6C785.04 65.32 785.02 65.072 784.996 64.856C784.98 64.632 784.956 64.432 784.924 64.256H786.976ZM779.896 66.2C780.064 66.224 780.292 66.248 780.58 66.272C780.876 66.288 781.132 66.296 781.348 66.296C781.484 66.296 781.696 66.296 781.984 66.296C782.28 66.296 782.624 66.296 783.016 66.296C783.408 66.296 783.82 66.296 784.252 66.296C784.692 66.296 785.124 66.296 785.548 66.296C785.98 66.296 786.38 66.296 786.748 66.296C787.116 66.296 787.428 66.296 787.684 66.296C787.94 66.296 788.108 66.296 788.188 66.296C788.404 66.296 788.648 66.284 788.92 66.26C789.192 66.236 789.404 66.212 789.556 66.188V68.096C789.34 68.088 789.116 68.084 788.884 68.084C788.66 68.076 788.464 68.072 788.296 68.072C788.232 68.072 788.072 68.072 787.816 68.072C787.56 68.072 787.24 68.072 786.856 68.072C786.48 68.072 786.068 68.072 785.62 68.072C785.18 68.072 784.732 68.072 784.276 68.072C783.828 68.072 783.404 68.072 783.004 68.072C782.604 68.072 782.26 68.072 781.972 68.072C781.692 68.072 781.5 68.072 781.396 68.072C781.172 68.072 780.92 68.076 780.64 68.084C780.368 68.092 780.12 68.104 779.896 68.12V66.2ZM779.14 71.972C779.764 71.684 780.352 71.364 780.904 71.012C781.464 70.66 781.976 70.296 782.44 69.92C782.904 69.544 783.312 69.168 783.664 68.792C784.016 68.408 784.3 68.044 784.516 67.7L785.464 67.712L785.476 69.26C785.228 69.628 784.916 70.008 784.54 70.4C784.172 70.784 783.764 71.164 783.316 71.54C782.876 71.916 782.412 72.272 781.924 72.608C781.436 72.936 780.952 73.228 780.472 73.484L779.14 71.972Z" fill="black"/>
</g>
<defs>
<filter id="filter0_dddddd_151_204" x="-126" y="-125" width="1756" height="1294" filterUnits="userSpaceOnUse" color-interpolation-filters="sRGB">
<feFlood flood-opacity="0" result="BackgroundImageFix"/>
<feColorMatrix in="SourceAlpha" type="matrix" values="0 0 0 0 0 0 0 0 0 0 0 0 0 0 0 0 0 0 127 0" result="hardAlpha"/>
<feOffset/>
<feGaussianBlur stdDeviation="1.82986"/>
<feColorMatrix type="matrix" values="0 0 0 0 0 0 0 0 0 0 0 0 0 0 0 0 0 0 0.0288889 0"/>
<feBlend mode="normal" in2="BackgroundImageFix" result="effect1_dropShadow_151_204"/>
<feColorMatrix in="SourceAlpha" type="matrix" values="0 0 0 0 0 0 0 0 0 0 0 0 0 0 0 0 0 0 127 0" result="hardAlpha"/>
<feOffset/>
<feGaussianBlur stdDeviation="3.78889"/>
<feColorMatrix type="matrix" values="0 0 0 0 0 0 0 0 0 0 0 0 0 0 0 0 0 0 0.0471111 0"/>
<feBlend mode="normal" in2="effect1_dropShadow_151_204" result="effect2_dropShadow_151_204"/>
<feColorMatrix in="SourceAlpha" type="matrix" values="0 0 0 0 0 0 0 0 0 0 0 0 0 0 0 0 0 0 127 0" result="hardAlpha"/>
<feOffset/>
<feGaussianBlur stdDeviation="7.55625"/>
<feColorMatrix type="matrix" values="0 0 0 0 0 0 0 0 0 0 0 0 0 0 0 0 0 0 0.06 0"/>
<feBlend mode="normal" in2="effect2_dropShadow_151_204" result="effect3_dropShadow_151_204"/>
<feColorMatrix in="SourceAlpha" type="matrix" values="0 0 0 0 0 0 0 0 0 0 0 0 0 0 0 0 0 0 127 0" result="hardAlpha"/>
<feOffset/>
<feGaussianBlur stdDeviation="14.8111"/>
<feColorMatrix type="matrix" values="0 0 0 0 0 0 0 0 0 0 0 0 0 0 0 0 0 0 0.0728889 0"/>
<feBlend mode="normal" in2="effect3_dropShadow_151_204" result="effect4_dropShadow_151_204"/>
<feColorMatrix in="SourceAlpha" type="matrix" values="0 0 0 0 0 0 0 0 0 0 0 0 0 0 0 0 0 0 127 0" result="hardAlpha"/>
<feOffset/>
<feGaussianBlur stdDeviation="27.2326"/>
<feColorMatrix type="matrix" values="0 0 0 0 0 0 0 0 0 0 0 0 0 0 0 0 0 0 0.0911111 0"/>
<feBlend mode="normal" in2="effect4_dropShadow_151_204" result="effect5_dropShadow_151_204"/>
<feColorMatrix in="SourceAlpha" type="matrix" values="0 0 0 0 0 0 0 0 0 0 0 0 0 0 0 0 0 0 127 0" result="hardAlpha"/>
<feOffset/>
<feGaussianBlur stdDeviation="46.5"/>
<feColorMatrix type="matrix" values="0 0 0 0 0 0 0 0 0 0 0 0 0 0 0 0 0 0 0.12 0"/>
<feBlend mode="normal" in2="effect5_dropShadow_151_204" result="effect6_dropShadow_151_204"/>
<feBlend mode="normal" in="SourceGraphic" in2="effect6_dropShadow_151_204" result="shape"/>
</filter>
<linearGradient id="paint0_linear_151_204" x1="93.8202" y1="883" x2="93.8202" y2="995" gradientUnits="userSpaceOnUse">
<stop stop-color="white"/>
<stop offset="1"/>
</linearGradient>
<linearGradient id="paint1_linear_151_204" x1="1446.5" y1="50.924" x2="1334.19" y2="50.924" gradientUnits="userSpaceOnUse">
<stop/>
<stop offset="1" stop-color="white"/>
</linearGradient>
</defs>
</svg>
